<?xml version="1.0" standalone="no"?>
<!DOCTYPE svg PUBLIC "-//W3C//DTD SVG 20010904//EN"
 "http://www.w3.org/TR/2001/REC-SVG-20010904/DTD/svg10.dtd">
<svg version="1.0" xmlns="http://www.w3.org/2000/svg"
 width="641.000000pt" height="370.000000pt" viewBox="0 0 641.000000 370.000000"
 preserveAspectRatio="xMidYMid meet">

<g transform="translate(0.000000,370.000000) scale(0.100000,-0.100000)"
fill="#000000" stroke="none">
<path d="M4600 2089 c-272 -4 -652 -12 -845 -18 -192 -6 -550 -16 -795 -21
-245 -5 -503 -12 -575 -15 -71 -3 -402 -12 -735 -20 -333 -8 -694 -18 -802
-22 l-198 -6 0 -64 0 -64 38 5 37 5 -37 -10 c-33 -9 -38 -15 -38 -40 0 -16 2
-29 4 -29 2 0 51 11 108 24 176 41 200 38 42 -6 l-152 -42 0 -34 c0 -30 2 -33
22 -28 112 33 455 116 470 114 11 -2 -72 -29 -185 -61 -344 -97 -309 -83 -309
-123 0 -19 4 -34 9 -34 4 0 53 13 107 29 223 66 627 172 655 170 14 0 -190
-63 -559 -171 l-212 -62 0 -39 c0 -29 4 -38 14 -34 66 25 544 162 898 256 76
21 106 26 97 16 -11 -10 -759 -231 -966 -285 l-43 -11 0 -65 0 -66 203 6 c111
4 330 9 487 12 157 3 353 7 435 9 83 2 294 6 470 9 176 4 487 11 690 17 204 6
588 14 855 19 267 5 589 14 715 19 127 5 341 13 478 16 136 4 247 11 247 15 0
5 -9 6 -19 3 -13 -3 -21 2 -26 16 -3 12 -13 21 -20 21 -16 0 -31 43 -20 59 3
6 -1 11 -9 11 -18 0 -31 42 -22 66 4 9 2 22 -4 28 -5 7 -10 26 -10 42 0 16 -1
37 -1 47 0 9 0 36 0 60 0 23 0 61 0 85 0 29 5 44 16 48 23 9 18 32 -7 37 -22
4 -22 4 -2 6 12 0 24 10 27 20 4 17 -1 21 -32 24 -36 4 -36 4 6 5 33 2 46 7
59 27 13 20 19 23 30 14 11 -9 14 -8 14 5 0 13 -10 16 -57 14 -32 -1 -281 -5
-553 -9z m-127 -56 c-13 -2 -33 -2 -45 0 -13 2 -3 4 22 4 25 0 35 -2 23 -4z
m370 0 c-13 -2 -35 -2 -50 0 -16 2 -5 4 22 4 28 0 40 -2 28 -4z m-470 -10
c-13 -2 -33 -2 -45 0 -13 2 -3 4 22 4 25 0 35 -2 23 -4z m370 0 c-13 -2 -35
-2 -50 0 -16 2 -5 4 22 4 28 0 40 -2 28 -4z m282 -4 c-22 -4 -51 -8 -65 -7
-35 1 34 15 75 16 25 0 23 -2 -10 -9z m-377 -6 c-10 -2 -26 -2 -35 0 -10 3 -2
5 17 5 19 0 27 -2 18 -5z m-85 -10 c-7 -2 -21 -2 -30 0 -10 3 -4 5 12 5 17 0
24 -2 18 -5z m355 0 c-10 -2 -26 -2 -35 0 -10 3 -2 5 17 5 19 0 27 -2 18 -5z
m-425 -10 c-7 -2 -19 -2 -25 0 -7 3 -2 5 12 5 14 0 19 -2 13 -5z m360 0 c-7
-2 -21 -2 -30 0 -10 3 -4 5 12 5 17 0 24 -2 18 -5z m-3396 -9 c-3 -3 -12 -4
-19 -1 -8 3 -5 6 6 6 11 1 17 -2 13 -5z m3336 -1 c-7 -2 -21 -2 -30 0 -10 3
-4 5 12 5 17 0 24 -2 18 -5z m-3710 -10 c-7 -2 -21 -2 -30 0 -10 3 -4 5 12 5
17 0 24 -2 18 -5z m270 0 c-7 -2 -19 -2 -25 0 -7 3 -2 5 12 5 14 0 19 -2 13
-5z m3380 0 c-7 -2 -19 -2 -25 0 -7 3 -2 5 12 5 14 0 19 -2 13 -5z m340 0 c-7
-2 -19 -2 -25 0 -7 3 -2 5 12 5 14 0 19 -2 13 -5z m-46 -9 c-3 -3 -12 -4 -19
-1 -8 3 -5 6 6 6 11 1 17 -2 13 -5z m-3860 -10 c-3 -3 -12 -4 -19 -1 -8 3 -5
6 6 6 11 1 17 -2 13 -5z m320 0 c-3 -3 -12 -4 -19 -1 -8 3 -5 6 6 6 11 1 17
-2 13 -5z m-150 -20 c-3 -3 -12 -4 -19 -1 -8 3 -5 6 6 6 11 1 17 -2 13 -5z
m830 -30 c-3 -3 -12 -4 -19 -1 -8 3 -5 6 6 6 11 1 17 -2 13 -5z m-470 -130
c-3 -3 -12 -4 -19 -1 -8 3 -5 6 6 6 11 1 17 -2 13 -5z m-970 -20 c-3 -3 -12
-4 -19 -1 -8 3 -5 6 6 6 11 1 17 -2 13 -5z m1128 -36 c-337 -112 -900 -268
-1020 -281 l-50 -6 50 15 c28 8 187 53 355 101 168 47 397 111 510 143 229 65
239 68 260 68 8 0 -39 -18 -105 -40z m345 1 c-218 -79 -750 -229 -964 -274
-179 -36 -184 -29 -11 14 83 21 294 79 470 129 486 139 529 151 545 151 8 0
-10 -9 -40 -20z m210 -46 c-348 -114 -939 -265 -983 -250 -7 2 6 7 28 11 73
13 236 55 505 131 586 164 709 194 450 108z m245 -35 c-222 -73 -733 -200
-794 -197 -9 0 58 20 149 43 241 63 700 184 735 195 17 5 37 9 45 9 8 0 -52
-22 -135 -50z m305 -15 c-173 -57 -394 -114 -588 -153 -212 -42 -231 -36 -32
9 161 37 423 105 625 161 150 42 148 34 -5 -17z m320 -10 c-213 -70 -698 -182
-733 -170 -7 2 19 9 57 16 68 12 496 119 656 165 127 35 140 29 20 -11z m320
-9 c-173 -56 -554 -145 -608 -143 -9 0 46 15 123 34 77 19 228 56 335 83 211
54 269 64 150 26z m329 -9 c-19 -19 -593 -145 -605 -132 -2 2 53 16 124 31 70
15 199 44 287 65 151 37 204 47 194 36z m248 -31 c-3 -3 -12 -4 -19 -1 -8 3
-5 6 6 6 11 1 17 -2 13 -5z m-37 -8 c0 -9 -288 -70 -380 -80 l-45 -5 45 11
c218 53 380 84 380 74z m217 -32 c-3 -3 -12 -4 -19 -1 -8 3 -5 6 6 6 11 1 17
-2 13 -5z m-40 -10 c-3 -3 -12 -4 -19 -1 -8 3 -5 6 6 6 11 1 17 -2 13 -5z
m-50 -10 c-3 -3 -12 -4 -19 -1 -8 3 -5 6 6 6 11 1 17 -2 13 -5z m-54 -11 c-7
-2 -19 -2 -25 0 -7 3 -2 5 12 5 14 0 19 -2 13 -5z m-1250 -40 c-7 -2 -19 -2
-25 0 -7 3 -2 5 12 5 14 0 19 -2 13 -5z m-1130 -20 c-7 -2 -21 -2 -30 0 -10 3
-4 5 12 5 17 0 24 -2 18 -5z m330 0 c-7 -2 -19 -2 -25 0 -7 3 -2 5 12 5 14 0
19 -2 13 -5z"/>
<path d="M5240 2022 c0 -9 -7 -11 -20 -7 -11 4 -20 2 -20 -4 0 -6 6 -11 14
-11 8 0 16 -5 18 -11 2 -7 8 -6 15 3 8 9 9 19 3 28 -7 11 -10 12 -10 2z"/>
<path d="M5274 1984 c3 -9 6 -21 6 -28 0 -6 10 -12 23 -13 19 -2 20 -1 5 8
-10 6 -18 19 -18 29 0 11 -5 20 -11 20 -6 0 -8 -7 -5 -16z"/>
<path d="M5170 1976 c0 -8 7 -16 15 -20 10 -4 15 1 15 14 0 11 -7 20 -15 20
-8 0 -15 -6 -15 -14z"/>
<path d="M5143 1906 c0 -19 5 -33 9 -30 11 7 10 64 -1 64 -5 0 -9 -15 -8 -34z"/>
<path d="M5225 1920 c-4 -6 -11 -8 -16 -5 -5 4 -9 0 -9 -8 0 -8 6 -17 13 -20
16 -6 41 29 27 38 -5 3 -11 1 -15 -5z"/>
<path d="M5265 1878 c4 -17 14 -38 21 -46 12 -11 14 -10 14 7 0 11 -4 23 -10
26 -5 3 -10 15 -10 26 0 10 -5 19 -11 19 -7 0 -8 -11 -4 -32z"/>
<path d="M5310 1882 c0 -11 7 -22 15 -26 9 -3 15 0 15 8 0 7 -7 19 -15 26 -12
10 -15 9 -15 -8z"/>
<path d="M5174 1821 c0 -39 2 -47 11 -35 11 16 8 84 -4 84 -3 0 -6 -22 -7 -49z"/>
<path d="M5127 1807 c2 -71 3 -75 13 -51 9 22 2 104 -9 104 -3 0 -5 -24 -4
-53z"/>
<path d="M5286 1770 c-9 -47 -8 -96 3 -84 5 5 11 28 14 50 6 51 -7 79 -17 34z"/>
<path d="M5326 1783 c-4 -9 -2 -21 4 -27 7 -7 10 -7 10 1 0 6 3 18 6 27 3 9 2
16 -4 16 -5 0 -13 -8 -16 -17z"/>
<path d="M5176 1704 c-3 -8 -1 -14 4 -14 5 0 14 -15 19 -32 l9 -33 1 41 c1 42
-21 68 -33 38z"/>
<path d="M5135 1691 c-4 -7 -2 -17 3 -24 5 -7 12 -21 15 -32 3 -14 5 -11 6 10
1 36 -13 63 -24 46z"/>
<path d="M5240 1669 c0 -8 -3 -25 -6 -39 -5 -24 -5 -24 10 -6 8 10 19 15 25
11 7 -4 11 3 11 16 0 12 -3 19 -7 16 -3 -4 -12 -2 -20 4 -10 9 -13 8 -13 -2z"/>
<path d="M5310 1650 c0 -16 5 -30 10 -30 6 0 10 14 10 30 0 17 -4 30 -10 30
-5 0 -10 -13 -10 -30z"/>
<path d="M5150 1601 c0 -6 6 -11 14 -11 8 0 17 -11 20 -25 4 -14 10 -23 15
-21 10 7 2 56 -9 56 -5 0 -15 3 -24 6 -9 3 -16 1 -16 -5z"/>
<path d="M5277 1579 c-3 -11 0 -19 8 -19 18 0 27 27 10 33 -7 3 -15 -3 -18
-14z"/>
<path d="M5226 1554 c-10 -27 -7 -37 9 -24 8 6 19 9 25 5 5 -3 10 -2 10 2 0 5
-9 14 -19 20 -16 10 -20 9 -25 -3z"/>
</g>
</svg>
